{
  "accessors": [
    {
      "bufferView": 2,
      "componentType": 5126,
      "count": 599,
      "max": [
        0.1981114149093628,
        0.1981114149093628,
        0.4336460530757904
      ],
      "min": [
        -0.1981114149093628,
        -0.1981114149093628,
        -0.433646023273468
      ],
      "type": "VEC3"
    },
    {
      "bufferView": 2,
      "byteOffset": 7188,
      "componentType": 5126,
      "count": 599,
      "max": [
        0.9975681900978088,
        0.9975489974021912,
        1.0
      ],
      "min": [
        -0.9975298047065735,
        -0.9975489974021912,
        -1.0
      ],
      "type": "VEC3"
    },
    {
      "bufferView": 3,
      "componentType": 5126,
      "count": 599,
      "max": [
        1.0,
        0.9999997615814209,
        0.9970613121986389,
        1.0
      ],
      "min": [
        -0.936916708946228,
        -0.9998594522476196,
        -0.6603633761405945,
        1.0
      ],
      "type": "VEC4"
    },
    {
      "bufferView": 1,
      "componentType": 5126,
      "count": 599,
      "max": [
        0.9911869168281555,
        0.9948263168334961
      ],
      "min": [
        0.004956765100359917,
        0.01298166811466217
      ],
      "type": "VEC2"
    },
    {
      "bufferView": 1,
      "byteOffset": 4792,
      "componentType": 5126,
      "count": 599,
      "max": [
        0.9911869168281555,
        0.9948263168334961
      ],
      "min": [
        0.004956765100359917,
        0.01298166811466217
      ],
      "type": "VEC2"
    },
    {
      "bufferView": 1,
      "byteOffset": 9584,
      "componentType": 5126,
      "count": 599,
      "max": [
        0.9911869168281555,
        0.9948263168334961
      ],
      "min": [
        0.004956765100359917,
        0.01298166811466217
      ],
      "type": "VEC2"
    },
    {
      "bufferView": 0,
      "componentType": 5125,
      "count": 2490,
      "type": "SCALAR"
    }
  ],
  "asset": {
    "extras": {
      "author": "plaggy (https://sketchfab.com/plaggy)",
      "license": "CC-BY-4.0 (http://creativecommons.org/licenses/by/4.0/)",
      "source": "https://sketchfab.com/3d-models/cc0-pin-2-4e7f37bee0674d569f558b0f08b7fdb7",
      "title": "CC0 - Pin 2"
    },
    "generator": "Sketchfab-12.45.0",
    "version": "2.0"
  },
  "bufferViews": [
    {
      "buffer": 0,
      "byteLength": 9960,
      "name": "floatBufferViews",
      "target": 34963
    },
    {
      "buffer": 0,
      "byteLength": 14376,
      "byteOffset": 9960,
      "byteStride": 8,
      "name": "floatBufferViews",
      "target": 34962
    },
    {
      "buffer": 0,
      "byteLength": 14376,
      "byteOffset": 24336,
      "byteStride": 12,
      "name": "floatBufferViews",
      "target": 34962
    },
    {
      "buffer": 0,
      "byteLength": 9584,
      "byteOffset": 38712,
      "byteStride": 16,
      "name": "floatBufferViews",
      "target": 34962
    }
  ],
  "buffers": [
    {
      "byteLength": 48296,
      "uri": "scene.bin"
    }
  ],
  "images": [
    {
      "uri": "textures/Pin2_baseColor.png"
    },
    {
      "uri": "textures/Pin2_metallicRoughness.png"
    },
    {
      "uri": "textures/Pin2_normal.png"
    }
  ],
  "materials": [
    {
      "name": "Pin2",
      "normalTexture": {
        "index": 2
      },
      "occlusionTexture": {
        "index": 1
      },
      "pbrMetallicRoughness": {
        "baseColorTexture": {
          "index": 0
        },
        "metallicRoughnessTexture": {
          "index": 1
        }
      }
    }
  ],
  "meshes": [
    {
      "name": "Pin2_Pin2_0",
      "primitives": [
        {
          "attributes": {
            "NORMAL": 1,
            "POSITION": 0,
            "TANGENT": 2,
            "TEXCOORD_0": 3,
            "TEXCOORD_1": 4,
            "TEXCOORD_2": 5
          },
          "indices": 6,
          "material": 0,
          "mode": 4
        }
      ]
    }
  ],
  "nodes": [
    {
      "children": [
        1
      ],
      "matrix": [
        1.0,
        0.0,
        0.0,
        0.0,
        0.0,
        2.220446049250313e-16,
        -1.0,
        0.0,
        0.0,
        1.0,
        2.220446049250313e-16,
        0.0,
        0.0,
        0.0,
        0.0,
        1.0
      ],
      "name": "Sketchfab_model"
    },
    {
      "children": [
        2
      ],
      "matrix": [
        0.02539999969303608,
        0.0,
        0.0,
        0.0,
        0.0,
        0.0,
        0.02539999969303608,
        0.0,
        0.0,
        -0.02539999969303608,
        0.0,
        0.0,
        0.0,
        0.0,
        0.0,
        1.0
      ],
      "name": "1c31d7bb12504fc3af76163339c65cdd.fbx"
    },
    {
      "children": [
        3
      ],
      "name": "RootNode"
    },
    {
      "children": [
        4
      ],
      "matrix": [
        0.7755222013737206,
        -0.015711157892443095,
        -0.6311247695140296,
        0.0,
        -0.5633223789720028,
        0.43409681596619143,
        -0.7030134079214548,
        0.0,
        0.2850144075757952,
        0.9007292122972882,
        0.32780127148704785,
        0.0,
        0.0,
        -0.0007392168045043945,
        -2.0690889002139556e-09,
        1.0
      ],
      "name": "Pin2"
    },
    {
      "mesh": 0,
      "name": "Pin2_Pin2_0"
    }
  ],
  "samplers": [
    {
      "magFilter": 9729,
      "minFilter": 9987,
      "wrapS": 10497,
      "wrapT": 10497
    }
  ],
  "scene": 0,
  "scenes": [
    {
      "name": "Sketchfab_Scene",
      "nodes": [
        0
      ]
    }
  ],
  "textures": [
    {
      "sampler": 0,
      "source": 0
    },
    {
      "sampler": 0,
      "source": 1
    },
    {
      "sampler": 0,
      "source": 2
    }
  ]
}
